<mxfile host="Electron" modified="2024-04-16T10:00:35.628Z" agent="Mozilla/5.0 (X11; Linux x86_64) AppleWebKit/537.36 (KHTML, like Gecko) draw.io/24.2.5 Chrome/120.0.6099.109 Electron/28.1.0 Safari/537.36" etag="DL6UfjvcMjrRVd1PALTN" version="24.2.5" type="device" pages="2">
  <diagram name="positives" id="KOUPpANFC5C_FCeGJAXz">
    <mxGraphModel dx="2008" dy="1057" grid="1" gridSize="10" guides="1" tooltips="1" connect="1" arrows="1" fold="1" page="1" pageScale="1" pageWidth="600" pageHeight="200" math="0" shadow="0">
      <root>
        <mxCell id="0" />
        <mxCell id="1" parent="0" />
        <mxCell id="rnEz9USAsW4vGe4ifcPa-4" value="3" style="rounded=0;orthogonalLoop=1;jettySize=auto;html=1;exitX=1;exitY=1;exitDx=0;exitDy=0;entryX=0;entryY=0;entryDx=0;entryDy=0;endArrow=none;endFill=0;strokeWidth=3;" parent="1" source="rnEz9USAsW4vGe4ifcPa-1" target="rnEz9USAsW4vGe4ifcPa-3" edge="1">
          <mxGeometry y="-14" relative="1" as="geometry">
            <mxPoint as="offset" />
          </mxGeometry>
        </mxCell>
        <mxCell id="rnEz9USAsW4vGe4ifcPa-6" value="1" style="rounded=0;orthogonalLoop=1;jettySize=auto;html=1;exitX=1;exitY=0.5;exitDx=0;exitDy=0;entryX=0;entryY=0.5;entryDx=0;entryDy=0;endArrow=none;endFill=0;strokeWidth=3;" parent="1" source="rnEz9USAsW4vGe4ifcPa-1" target="rnEz9USAsW4vGe4ifcPa-2" edge="1">
          <mxGeometry y="10" relative="1" as="geometry">
            <mxPoint as="offset" />
          </mxGeometry>
        </mxCell>
        <mxCell id="rnEz9USAsW4vGe4ifcPa-1" value="A" style="ellipse;whiteSpace=wrap;html=1;aspect=fixed;fontStyle=1" parent="1" vertex="1">
          <mxGeometry x="40" y="40" width="40" height="40" as="geometry" />
        </mxCell>
        <mxCell id="rnEz9USAsW4vGe4ifcPa-2" value="B" style="ellipse;whiteSpace=wrap;html=1;aspect=fixed;fontStyle=1" parent="1" vertex="1">
          <mxGeometry x="200" y="40" width="40" height="40" as="geometry" />
        </mxCell>
        <mxCell id="rnEz9USAsW4vGe4ifcPa-5" value="2" style="rounded=0;orthogonalLoop=1;jettySize=auto;html=1;exitX=1;exitY=0;exitDx=0;exitDy=0;entryX=0;entryY=1;entryDx=0;entryDy=0;endArrow=none;endFill=0;strokeWidth=3;" parent="1" source="rnEz9USAsW4vGe4ifcPa-3" target="rnEz9USAsW4vGe4ifcPa-2" edge="1">
          <mxGeometry y="-14" relative="1" as="geometry">
            <mxPoint as="offset" />
          </mxGeometry>
        </mxCell>
        <mxCell id="rnEz9USAsW4vGe4ifcPa-3" value="C" style="ellipse;whiteSpace=wrap;html=1;aspect=fixed;fontStyle=1" parent="1" vertex="1">
          <mxGeometry x="120" y="120" width="40" height="40" as="geometry" />
        </mxCell>
        <mxCell id="Rd3aEb97Z-BhQuetzEZs-1" value="3" style="rounded=0;orthogonalLoop=1;jettySize=auto;html=1;exitX=1;exitY=1;exitDx=0;exitDy=0;entryX=0;entryY=0;entryDx=0;entryDy=0;endArrow=none;endFill=0;strokeWidth=3;" parent="1" source="Rd3aEb97Z-BhQuetzEZs-3" target="Rd3aEb97Z-BhQuetzEZs-6" edge="1">
          <mxGeometry y="-14" relative="1" as="geometry">
            <mxPoint as="offset" />
          </mxGeometry>
        </mxCell>
        <mxCell id="Rd3aEb97Z-BhQuetzEZs-2" value="1" style="rounded=0;orthogonalLoop=1;jettySize=auto;html=1;exitX=1;exitY=0.5;exitDx=0;exitDy=0;entryX=0;entryY=0.5;entryDx=0;entryDy=0;endArrow=none;endFill=0;fillColor=#0050ef;strokeColor=#001DBC;strokeWidth=3;" parent="1" source="Rd3aEb97Z-BhQuetzEZs-3" target="Rd3aEb97Z-BhQuetzEZs-4" edge="1">
          <mxGeometry y="10" relative="1" as="geometry">
            <mxPoint as="offset" />
          </mxGeometry>
        </mxCell>
        <mxCell id="Rd3aEb97Z-BhQuetzEZs-3" value="A" style="ellipse;whiteSpace=wrap;html=1;aspect=fixed;fontStyle=1;fillColor=#0050ef;fontColor=#ffffff;strokeColor=#001DBC;" parent="1" vertex="1">
          <mxGeometry x="360" y="40" width="40" height="40" as="geometry" />
        </mxCell>
        <mxCell id="Rd3aEb97Z-BhQuetzEZs-4" value="B" style="ellipse;whiteSpace=wrap;html=1;aspect=fixed;fontStyle=1;fillColor=#0050ef;fontColor=#ffffff;strokeColor=#001DBC;" parent="1" vertex="1">
          <mxGeometry x="520" y="40" width="40" height="40" as="geometry" />
        </mxCell>
        <mxCell id="Rd3aEb97Z-BhQuetzEZs-5" value="2" style="rounded=0;orthogonalLoop=1;jettySize=auto;html=1;exitX=1;exitY=0;exitDx=0;exitDy=0;entryX=0;entryY=1;entryDx=0;entryDy=0;endArrow=none;endFill=0;fillColor=#0050ef;strokeColor=#001DBC;strokeWidth=3;" parent="1" source="Rd3aEb97Z-BhQuetzEZs-6" target="Rd3aEb97Z-BhQuetzEZs-4" edge="1">
          <mxGeometry y="-14" relative="1" as="geometry">
            <mxPoint as="offset" />
          </mxGeometry>
        </mxCell>
        <mxCell id="Rd3aEb97Z-BhQuetzEZs-6" value="C" style="ellipse;whiteSpace=wrap;html=1;aspect=fixed;fontStyle=1;fillColor=#0050ef;fontColor=#ffffff;strokeColor=#001DBC;" parent="1" vertex="1">
          <mxGeometry x="440" y="120" width="40" height="40" as="geometry" />
        </mxCell>
        <mxCell id="4r2jcwWKvfFjSYp7JNiK-5" value="" style="shape=flexArrow;endArrow=classic;html=1;rounded=0;" parent="1" edge="1">
          <mxGeometry width="50" height="50" relative="1" as="geometry">
            <mxPoint x="280" y="100" as="sourcePoint" />
            <mxPoint x="320" y="100" as="targetPoint" />
          </mxGeometry>
        </mxCell>
      </root>
    </mxGraphModel>
  </diagram>
  <diagram name="negatives" id="_Riec_6xvnc_zJ5K4zrZ">
    <mxGraphModel dx="2008" dy="1057" grid="1" gridSize="10" guides="1" tooltips="1" connect="1" arrows="1" fold="1" page="1" pageScale="1" pageWidth="600" pageHeight="200" math="0" shadow="0">
      <root>
        <mxCell id="clz4MjRNPv5UENPcPlQO-0" />
        <mxCell id="clz4MjRNPv5UENPcPlQO-1" parent="clz4MjRNPv5UENPcPlQO-0" />
        <mxCell id="clz4MjRNPv5UENPcPlQO-2" value="-1" style="rounded=0;orthogonalLoop=1;jettySize=auto;html=1;exitX=1;exitY=1;exitDx=0;exitDy=0;entryX=0;entryY=0;entryDx=0;entryDy=0;endArrow=none;endFill=0;strokeWidth=3;" parent="clz4MjRNPv5UENPcPlQO-1" source="clz4MjRNPv5UENPcPlQO-4" target="clz4MjRNPv5UENPcPlQO-7" edge="1">
          <mxGeometry y="-14" relative="1" as="geometry">
            <mxPoint as="offset" />
          </mxGeometry>
        </mxCell>
        <mxCell id="clz4MjRNPv5UENPcPlQO-3" value="-1" style="rounded=0;orthogonalLoop=1;jettySize=auto;html=1;exitX=1;exitY=0.5;exitDx=0;exitDy=0;entryX=0;entryY=0.5;entryDx=0;entryDy=0;endArrow=none;endFill=0;strokeWidth=3;" parent="clz4MjRNPv5UENPcPlQO-1" source="clz4MjRNPv5UENPcPlQO-4" target="clz4MjRNPv5UENPcPlQO-5" edge="1">
          <mxGeometry y="10" relative="1" as="geometry">
            <mxPoint as="offset" />
          </mxGeometry>
        </mxCell>
        <mxCell id="clz4MjRNPv5UENPcPlQO-4" value="A" style="ellipse;whiteSpace=wrap;html=1;aspect=fixed;fontStyle=1" parent="clz4MjRNPv5UENPcPlQO-1" vertex="1">
          <mxGeometry x="40" y="40" width="40" height="40" as="geometry" />
        </mxCell>
        <mxCell id="clz4MjRNPv5UENPcPlQO-5" value="B" style="ellipse;whiteSpace=wrap;html=1;aspect=fixed;fontStyle=1" parent="clz4MjRNPv5UENPcPlQO-1" vertex="1">
          <mxGeometry x="200" y="40" width="40" height="40" as="geometry" />
        </mxCell>
        <mxCell id="clz4MjRNPv5UENPcPlQO-6" value="-1" style="rounded=0;orthogonalLoop=1;jettySize=auto;html=1;exitX=1;exitY=0;exitDx=0;exitDy=0;entryX=0;entryY=1;entryDx=0;entryDy=0;endArrow=none;endFill=0;strokeWidth=3;" parent="clz4MjRNPv5UENPcPlQO-1" source="clz4MjRNPv5UENPcPlQO-7" target="clz4MjRNPv5UENPcPlQO-5" edge="1">
          <mxGeometry y="-14" relative="1" as="geometry">
            <mxPoint as="offset" />
          </mxGeometry>
        </mxCell>
        <mxCell id="clz4MjRNPv5UENPcPlQO-7" value="C" style="ellipse;whiteSpace=wrap;html=1;aspect=fixed;fontStyle=1" parent="clz4MjRNPv5UENPcPlQO-1" vertex="1">
          <mxGeometry x="120" y="120" width="40" height="40" as="geometry" />
        </mxCell>
        <mxCell id="clz4MjRNPv5UENPcPlQO-8" value="-1" style="rounded=0;orthogonalLoop=1;jettySize=auto;html=1;exitX=1;exitY=1;exitDx=0;exitDy=0;entryX=0;entryY=0;entryDx=0;entryDy=0;endArrow=none;endFill=0;strokeWidth=3;" parent="clz4MjRNPv5UENPcPlQO-1" source="clz4MjRNPv5UENPcPlQO-10" target="clz4MjRNPv5UENPcPlQO-13" edge="1">
          <mxGeometry y="-14" relative="1" as="geometry">
            <mxPoint as="offset" />
          </mxGeometry>
        </mxCell>
        <mxCell id="clz4MjRNPv5UENPcPlQO-9" value="-1" style="rounded=0;orthogonalLoop=1;jettySize=auto;html=1;exitX=1;exitY=0.5;exitDx=0;exitDy=0;entryX=0;entryY=0.5;entryDx=0;entryDy=0;endArrow=none;endFill=0;fillColor=#a20025;strokeColor=#6F0000;strokeWidth=3;" parent="clz4MjRNPv5UENPcPlQO-1" source="clz4MjRNPv5UENPcPlQO-10" target="clz4MjRNPv5UENPcPlQO-11" edge="1">
          <mxGeometry y="10" relative="1" as="geometry">
            <mxPoint as="offset" />
          </mxGeometry>
        </mxCell>
        <mxCell id="clz4MjRNPv5UENPcPlQO-10" value="A" style="ellipse;whiteSpace=wrap;html=1;aspect=fixed;fontStyle=1;fillColor=#a20025;fontColor=#ffffff;strokeColor=#6F0000;" parent="clz4MjRNPv5UENPcPlQO-1" vertex="1">
          <mxGeometry x="360" y="40" width="40" height="40" as="geometry" />
        </mxCell>
        <mxCell id="clz4MjRNPv5UENPcPlQO-11" value="B" style="ellipse;whiteSpace=wrap;html=1;aspect=fixed;fontStyle=1;fillColor=#a20025;fontColor=#ffffff;strokeColor=#6F0000;" parent="clz4MjRNPv5UENPcPlQO-1" vertex="1">
          <mxGeometry x="520" y="40" width="40" height="40" as="geometry" />
        </mxCell>
        <mxCell id="clz4MjRNPv5UENPcPlQO-12" value="-1" style="rounded=0;orthogonalLoop=1;jettySize=auto;html=1;exitX=1;exitY=0;exitDx=0;exitDy=0;entryX=0;entryY=1;entryDx=0;entryDy=0;endArrow=none;endFill=0;fillColor=#a20025;strokeColor=#6F0000;strokeWidth=3;" parent="clz4MjRNPv5UENPcPlQO-1" source="clz4MjRNPv5UENPcPlQO-13" target="clz4MjRNPv5UENPcPlQO-11" edge="1">
          <mxGeometry y="-14" relative="1" as="geometry">
            <mxPoint as="offset" />
          </mxGeometry>
        </mxCell>
        <mxCell id="clz4MjRNPv5UENPcPlQO-13" value="C" style="ellipse;whiteSpace=wrap;html=1;aspect=fixed;fontStyle=1;fillColor=#a20025;fontColor=#ffffff;strokeColor=#6F0000;" parent="clz4MjRNPv5UENPcPlQO-1" vertex="1">
          <mxGeometry x="440" y="120" width="40" height="40" as="geometry" />
        </mxCell>
        <mxCell id="clz4MjRNPv5UENPcPlQO-14" value="" style="shape=flexArrow;endArrow=classic;html=1;rounded=0;" parent="clz4MjRNPv5UENPcPlQO-1" edge="1">
          <mxGeometry width="50" height="50" relative="1" as="geometry">
            <mxPoint x="280" y="100" as="sourcePoint" />
            <mxPoint x="320" y="100" as="targetPoint" />
          </mxGeometry>
        </mxCell>
      </root>
    </mxGraphModel>
  </diagram>
</mxfile>
